/usr/bin/start-video-rec.sh: line 93: kill: (639) - No such process
ffmpeg version 2.8.17-0ubuntu0.1 Copyright (c) 2000-2020 the FFmpeg developers
  built with gcc 5.4.0 (Ubuntu 5.4.0-6ubuntu1~16.04.12) 20160609
  configuration: --prefix=/usr --extra-version=0ubuntu0.1 --build-suffix=-ffmpeg --toolchain=hardened --libdir=/usr/lib/x86_64-linux-gnu --incdir=/usr/include/x86_64-linux-gnu --cc=cc --cxx=g++ --enable-gpl --enable-shared --disable-stripping --disable-decoder=libopenjpeg --disable-decoder=libschroedinger --enable-avresample --enable-avisynth --enable-gnutls --enable-ladspa --enable-libass --enable-libbluray --enable-libbs2b --enable-libcaca --enable-libcdio --enable-libflite --enable-libfontconfig --enable-libfreetype --enable-libfribidi --enable-libgme --enable-libgsm --enable-libmodplug --enable-libmp3lame --enable-libopenjpeg --enable-libopus --enable-libpulse --enable-librtmp --enable-libschroedinger --enable-libshine --enable-libsnappy --enable-libsoxr --enable-libspeex --enable-libssh --enable-libtheora --enable-libtwolame --enable-libvorbis --enable-libvpx --enable-libwavpack --enable-libwebp --enable-libx265 --enable-libxvid --enable-libzvbi --enable-openal --enable-opengl --enable-x11grab --enable-libdc1394 --enable-libiec61883 --enable-libzmq --enable-frei0r --enable-libx264 --enable-libopencv
  libavutil      54. 31.100 / 54. 31.100
  libavcodec     56. 60.100 / 56. 60.100
  libavformat    56. 40.101 / 56. 40.101
  libavdevice    56.  4.100 / 56.  4.100
  libavfilter     5. 40.101 /  5. 40.101
  libavresample   2.  1.  0 /  2.  1.  0
  libswscale      3.  1.101 /  3.  1.101
  libswresample   1.  2.101 /  1.  2.101
  libpostproc    53.  3.100 / 53.  3.100
Input #0, matroska,webm, from '/home/seluser/videos/vid_chrome_or_firefox_40003.mkv':
  Metadata:
    ENCODER         : Lavf56.40.101
  Duration: 00:01:30.00, start: 0.000000, bitrate: 69 kb/s
    Stream #0:0: Video: h264 (Constrained Baseline), yuv420p, 1366x768, SAR 1:1 DAR 683:384, 10 fps, 10 tbr, 1k tbn, 20 tbc (default)
    Metadata:
      ENCODER         : Lavc56.60.100 libx264
      DURATION        : 00:01:30.000000000
[libx264 @ 0xb29760] using SAR=1/1
[libx264 @ 0xb29760] using cpu capabilities: MMX2 SSE2Fast SSSE3 SSE4.2 AVX FMA3 AVX2 LZCNT BMI2
[libx264 @ 0xb29760] profile Constrained Baseline, level 3.2
[libx264 @ 0xb29760] 264 - core 148 r2643 5c65704 - H.264/MPEG-4 AVC codec - Copyleft 2003-2015 - http://www.videolan.org/x264.html - options: cabac=0 ref=1 deblock=0:0:0 analyse=0:0 me=dia subme=0 psy=1 psy_rd=1.00:0.00 mixed_ref=0 me_range=16 chroma_me=1 trellis=0 8x8dct=0 cqm=0 deadzone=21,11 fast_pskip=1 chroma_qp_offset=0 threads=3 lookahead_threads=1 sliced_threads=0 nr=0 decimate=1 interlaced=0 bluray_compat=0 constrained_intra=0 bframes=0 weightp=0 keyint=250 keyint_min=10 scenecut=0 intra_refresh=0 rc=crf mbtree=0 crf=23.0 qcomp=0.60 qpmin=0 qpmax=69 qpstep=4 ip_ratio=1.40 aq=0
Output #0, mp4, to '/home/seluser/videos/vid_chrome_or_firefox_40003.mp4':
  Metadata:
    encoder         : Lavf56.40.101
    Stream #0:0: Video: h264 (libx264) ([33][0][0][0] / 0x0021), yuv420p, 1366x768 [SAR 1:1 DAR 683:384], q=-1--1, 10 fps, 10240 tbn, 10 tbc (default)
    Metadata:
      DURATION        : 00:01:30.000000000
      encoder         : Lavc56.60.100 libx264
Stream mapping:
  Stream #0:0 -> #0:0 (h264 (native) -> h264 (libx264))
Press [q] to stop, [?] for help
frame=    6 fps=0.0 q=20.0 size=      26kB time=00:00:00.20 bitrate=1055.2kbits/s    
frame=   13 fps= 11 q=13.0 size=     185kB time=00:00:00.90 bitrate=1680.3kbits/s    
frame=   18 fps=9.6 q=10.0 size=     234kB time=00:00:01.40 bitrate=1366.3kbits/s    
frame=   25 fps= 11 q=10.0 size=     242kB time=00:00:02.10 bitrate= 945.1kbits/s    
frame=   36 fps= 12 q=9.0 size=     248kB time=00:00:03.20 bitrate= 634.0kbits/s    
frame=   42 fps= 12 q=9.0 size=     248kB time=00:00:03.80 bitrate= 535.0kbits/s    
frame=   53 fps= 13 q=9.0 size=     249kB time=00:00:04.90 bitrate= 416.2kbits/s    
frame=   62 fps= 13 q=11.0 size=     252kB time=00:00:05.80 bitrate= 356.5kbits/s    
frame=   71 fps= 14 q=9.0 size=     259kB time=00:00:06.70 bitrate= 316.4kbits/s    
frame=   78 fps= 14 q=9.0 size=     259kB time=00:00:07.40 bitrate= 287.1kbits/s    
frame=   87 fps= 14 q=9.0 size=     260kB time=00:00:08.30 bitrate= 256.5kbits/s    
frame=   95 fps= 14 q=9.0 size=     260kB time=00:00:09.10 bitrate= 234.4kbits/s    
frame=  103 fps= 14 q=9.0 size=     261kB time=00:00:09.90 bitrate= 215.8kbits/s    
frame=  112 fps= 14 q=9.0 size=     261kB time=00:00:10.80 bitrate= 198.2kbits/s    
frame=  124 fps= 15 q=9.0 size=     262kB time=00:00:12.00 bitrate= 178.8kbits/s    
frame=  134 fps= 15 q=9.0 size=     262kB time=00:00:13.00 bitrate= 165.4kbits/s    
frame=  143 fps= 15 q=9.0 size=     263kB time=00:00:13.90 bitrate= 155.0kbits/s    
frame=  150 fps= 15 q=9.0 size=     263kB time=00:00:14.60 bitrate= 147.7kbits/s    
frame=  156 fps= 15 q=9.0 size=     264kB time=00:00:15.20 bitrate= 142.1kbits/s    
frame=  160 fps= 14 q=9.0 size=     264kB time=00:00:15.60 bitrate= 138.5kbits/s    
frame=  168 fps= 14 q=9.0 size=     264kB time=00:00:16.40 bitrate= 132.0kbits/s    
frame=  177 fps= 14 q=9.0 size=     265kB time=00:00:17.30 bitrate= 125.4kbits/s    
frame=  183 fps= 14 q=9.0 size=     265kB time=00:00:17.90 bitrate= 121.3kbits/s    
frame=  190 fps= 14 q=9.0 size=     265kB time=00:00:18.60 bitrate= 116.9kbits/s    
frame=  195 fps= 14 q=9.0 size=     266kB time=00:00:19.10 bitrate= 114.0kbits/s    
frame=  203 fps= 14 q=9.0 size=     266kB time=00:00:19.90 bitrate= 109.5kbits/s    
frame=  211 fps= 13 q=9.0 size=     266kB time=00:00:20.70 bitrate= 105.5kbits/s    
frame=  221 fps= 14 q=9.0 size=     267kB time=00:00:21.70 bitrate= 100.8kbits/s    
frame=  232 fps= 14 q=9.0 size=     267kB time=00:00:22.80 bitrate=  96.1kbits/s    
frame=  244 fps= 14 q=9.0 size=     268kB time=00:00:24.00 bitrate=  91.5kbits/s    
frame=  255 fps= 14 q=17.0 size=     428kB time=00:00:25.10 bitrate= 139.6kbits/s    
frame=  264 fps= 14 q=9.0 size=     428kB time=00:00:26.00 bitrate= 134.9kbits/s    
frame=  273 fps= 14 q=-1.0 Lsize=     430kB time=00:00:27.30 bitrate= 129.1kbits/s    
video:428kB audio:0kB subtitle:0kB other streams:0kB global headers:0kB muxing overhead: 0.436080%
[libx264 @ 0xb29760] frame I:2     Avg QP:13.00  size: 88748
[libx264 @ 0xb29760] frame P:271   Avg QP: 9.52  size:   962
[libx264 @ 0xb29760] mb I  I16..4: 100.0%  0.0%  0.0%
[libx264 @ 0xb29760] mb P  I16..4:  0.8%  0.0%  0.0%  P16..4:  1.0%  0.0%  0.0%  0.0%  0.0%    skip:98.2%
[libx264 @ 0xb29760] coded y,uvDC,uvAC intra: 15.0% 14.0% 12.6% inter: 0.3% 0.6% 0.3%
[libx264 @ 0xb29760] i16 v,h,dc,p: 72% 26%  1%  0%
[libx264 @ 0xb29760] i8c dc,h,v,p: 72% 22%  5%  0%
[libx264 @ 0xb29760] kb/s:128.38
Exiting normally, received signal 15.
